<svg width="32" height="32" viewBox="0 0 32 32" fill="none" xmlns="http://www.w3.org/2000/svg">
<path d="M16 32C24.8366 32 32 24.8366 32 16C32 7.16344 24.8366 0 16 0C7.16344 0 0 7.16344 0 16C0 24.8366 7.16344 32 16 32Z" fill="#299197"/>
<path d="M11 16C11 18.475 12.8 20.525 15.175 20.95L15.2045 20.9258C15.203 20.9256 15.2015 20.9253 15.2 20.925V17.4H13.95V16H15.2V14.9C15.2 13.65 16 12.95 17.15 12.95C17.5 12.95 17.9 13 18.25 13.05V14.325H17.6C17 14.325 16.85 14.625 16.85 15.025V16H18.175L17.95 17.4H16.85V20.925C16.8347 20.9278 16.8195 20.9305 16.8043 20.9331L16.825 20.95C19.2 20.525 21 18.475 21 16C21 13.25 18.75 11 16 11C13.25 11 11 13.25 11 16Z" fill="white"/>
</svg>
