<svg width="32" height="32" viewBox="0 0 32 32" fill="none" xmlns="http://www.w3.org/2000/svg">
<path d="M16 32C24.8366 32 32 24.8366 32 16C32 7.16344 24.8366 0 16 0C7.16344 0 0 7.16344 0 16C0 24.8366 7.16344 32 16 32Z" fill="#299197"/>
<path d="M15.9997 17.4001C16.7729 17.4001 17.3997 16.7733 17.3997 16.0001C17.3997 15.2269 16.7729 14.6001 15.9997 14.6001C15.2265 14.6001 14.5997 15.2269 14.5997 16.0001C14.5997 16.7733 15.2265 17.4001 15.9997 17.4001Z" fill="white"/>
<path fill-rule="evenodd" clip-rule="evenodd" d="M11.7081 12.7334C11.333 13.3831 11.333 14.2554 11.333 16C11.333 17.7447 11.333 18.617 11.7081 19.2667C11.9539 19.6924 12.3074 20.0458 12.733 20.2916C13.3828 20.6667 14.2551 20.6667 15.9997 20.6667C17.7443 20.6667 18.6166 20.6667 19.2663 20.2916C19.692 20.0458 20.0455 19.6924 20.2912 19.2667C20.6663 18.617 20.6663 17.7447 20.6663 16C20.6663 14.2554 20.6663 13.3831 20.2912 12.7334C20.0455 12.3077 19.692 11.9543 19.2663 11.7085C18.6166 11.3334 17.7443 11.3334 15.9997 11.3334C14.2551 11.3334 13.3828 11.3334 12.733 11.7085C12.3074 11.9543 11.9539 12.3077 11.7081 12.7334ZM19.2663 13.4334C19.2663 13.82 18.9529 14.1334 18.5663 14.1334C18.1797 14.1334 17.8663 13.82 17.8663 13.4334C17.8663 13.0468 18.1797 12.7334 18.5663 12.7334C18.9529 12.7334 19.2663 13.0468 19.2663 13.4334ZM15.9997 18.3335C17.2883 18.3335 18.333 17.2888 18.333 16.0001C18.333 14.7115 17.2883 13.6668 15.9997 13.6668C14.711 13.6668 13.6663 14.7115 13.6663 16.0001C13.6663 17.2888 14.711 18.3335 15.9997 18.3335Z" fill="white"/>
</svg>
