<svg width="112" height="19" viewBox="0 0 112 19" fill="none" xmlns="http://www.w3.org/2000/svg">
<path fill-rule="evenodd" clip-rule="evenodd" d="M31.9738 12.0002C31.9738 15.4548 33.7484 18.2554 39.7819 18.2554C45.7942 18.2554 47.3414 16.433 47.715 13.915H42.3528C42.3528 14.5533 41.5035 15.1916 39.8561 15.1916C38.5224 15.1916 37.7464 14.6902 37.3354 13.915C37.1932 13.6468 37.1792 13.4044 37.1792 13.0214H47.8023C47.8207 12.6891 47.8267 12.348 47.8267 12.0002C47.8267 7.99686 45.4606 5.745 39.7819 5.745C34.1033 5.745 31.9738 7.99686 31.9738 12.0002ZM42.3026 9.95769C42.4448 10.2259 42.4588 10.596 42.4588 10.596H37.1792C37.1792 10.596 37.1932 10.2259 37.3354 9.95769C37.7426 9.18974 38.508 8.69047 39.819 8.68125C41.13 8.69047 41.8954 9.18974 42.3026 9.95769Z" fill="#222222" fill-opacity="0.4"/>
<path d="M97.7711 9.65449C97.7711 12.8938 100.019 13.4044 105.343 13.4044C106.407 13.4044 106.644 13.9549 106.644 14.3459C106.644 14.7368 106.289 15.2581 104.988 15.2581C103.45 15.2581 103.213 14.65 103.213 14.3459H97.7711C97.7711 16.848 99.1908 18.2554 104.869 18.2554C110.548 18.2554 111.968 16.848 111.968 14.3459C111.968 12.7821 111.258 12.0002 111.021 11.7396C109.94 10.5482 108.166 10.5549 105.52 10.5648C105.271 10.5657 105.015 10.5667 104.751 10.5667C103.45 10.5667 103.095 10.0454 103.095 9.65449C103.095 9.26354 103.45 8.74227 104.751 8.74227C106.171 8.74227 106.526 9.35042 106.526 9.65449H111.731C111.731 7.15241 110.548 5.745 104.869 5.745C99.1908 5.745 97.7711 7.15241 97.7711 9.65449Z" fill="#222222" fill-opacity="0.4"/>
<path fill-rule="evenodd" clip-rule="evenodd" d="M88.5433 18.2558C82.5097 18.2558 80.7352 15.4553 80.7352 12.0006C80.7352 7.99731 82.8646 5.74545 88.5433 5.74545C94.2219 5.74545 96.588 7.99731 96.588 12.0006C96.588 12.3484 96.582 12.6896 96.5636 13.0219H85.9406C85.9406 13.4049 85.9546 13.6473 86.0968 13.9155C86.5078 14.6907 87.2838 15.1921 88.6174 15.1921C90.2649 15.1921 91.1141 14.5538 91.1141 13.9155H96.4764C96.1028 16.4335 94.5555 18.2558 88.5433 18.2558ZM91.2202 10.5964C91.2202 10.5964 91.2062 10.2264 91.0639 9.95814C90.6567 9.19019 89.8913 8.69093 88.5804 8.6817C87.2694 8.69093 86.504 9.19019 86.0968 9.95814C85.9546 10.2264 85.9406 10.5964 85.9406 10.5964H91.2202Z" fill="#222222" fill-opacity="0.4"/>
<path d="M64.6358 6.00056H70.1545L72.5762 14.4258H73.0215L75.4432 6.00056H80.9619L76.1331 18.0003H69.4647L64.6358 6.00056Z" fill="#222222" fill-opacity="0.4"/>
<path fill-rule="evenodd" clip-rule="evenodd" d="M56.8179 18.2558C50.7843 18.2558 49.0097 15.4553 49.0097 12.0006C49.0097 7.99731 51.1392 5.74545 56.8179 5.74545C62.4965 5.74545 64.8626 7.99731 64.8626 12.0006C64.8626 12.3484 64.8566 12.6896 64.8382 13.0219H54.2151C54.2151 13.4049 54.2291 13.6473 54.3714 13.9155C54.7824 14.6907 55.5584 15.1921 56.892 15.1921C58.5395 15.1921 59.3887 14.5538 59.3887 13.9155H64.7509C64.3774 16.4335 62.8301 18.2558 56.8179 18.2558ZM59.4947 10.5964C59.4947 10.5964 59.4807 10.2264 59.3385 9.95814C58.9313 9.19019 58.1659 8.69093 56.8549 8.6817C55.544 8.69093 54.7786 9.19019 54.3714 9.95814C54.2292 10.2264 54.2152 10.5964 54.2152 10.5964H59.4947Z" fill="#222222" fill-opacity="0.4"/>
<path d="M31.0126 5.99966H17.999V9.85301H24.4596L17.999 14.1462V17.9995H31.0126V14.1462H24.5522L31.0126 9.85301V5.99966Z" fill="#222222" fill-opacity="0.4"/>
<path d="M14.999 0L9.20547 1.8455e-05L-0.000976562 18L5.79281 17.9999L14.999 0Z" fill="#222222" fill-opacity="0.4"/>
</svg>
