<svg width="600" height="228" viewBox="0 0 600 228" fill="none" xmlns="http://www.w3.org/2000/svg">
<g clip-path="url(#clip0_1336_857)" filter="url(#filter0_d_1336_857)">
<rect width="600" height="220" fill="#FFF1E5"/>
<path d="M511 -46L523.423 -32.3644L541 -37.9615L544.941 -19.9411L562.962 -16L557.364 1.57669L571 14L557.364 26.4233L562.962 44L544.941 47.9411L541 65.9615L523.423 60.3644L511 74L498.577 60.3644L481 65.9615L477.059 47.9411L459.038 44L464.636 26.4233L451 14L464.636 1.57669L459.038 -16L477.059 -19.9411L481 -37.9615L498.577 -32.3644L511 -46Z" fill="#FBFDFF"/>
<path d="M596 120L608.423 133.636L626 128.038L629.941 146.059L647.962 150L642.364 167.577L656 180L642.364 192.423L647.962 210L629.941 213.941L626 231.962L608.423 226.364L596 240L583.577 226.364L566 231.962L562.059 213.941L544.038 210L549.636 192.423L536 180L549.636 167.577L544.038 150L562.059 146.059L566 128.038L583.577 133.636L596 120Z" fill="#FBFDFF"/>
<path d="M262 124L274.423 137.636L292 132.038L295.941 150.059L313.962 154L308.364 171.577L322 184L308.364 196.423L313.962 214L295.941 217.941L292 235.962L274.423 230.364L262 244L249.577 230.364L232 235.962L228.059 217.941L210.038 214L215.636 196.423L202 184L215.636 171.577L210.038 154L228.059 150.059L232 132.038L249.577 137.636L262 124Z" fill="#FBFDFF"/>
<path d="M422 180L434.423 193.636L452 188.038L455.941 206.059L473.962 210L468.364 227.577L482 240L468.364 252.423L473.962 270L455.941 273.941L452 291.962L434.423 286.364L422 300L409.577 286.364L392 291.962L388.059 273.941L370.038 270L375.636 252.423L362 240L375.636 227.577L370.038 210L388.059 206.059L392 188.038L409.577 193.636L422 180Z" fill="#FBFDFF"/>
<path d="M191 169L203.423 182.636L221 177.038L224.941 195.059L242.962 199L237.364 216.577L251 229L237.364 241.423L242.962 259L224.941 262.941L221 280.962L203.423 275.364L191 289L178.577 275.364L161 280.962L157.059 262.941L139.038 259L144.636 241.423L131 229L144.636 216.577L139.038 199L157.059 195.059L161 177.038L178.577 182.636L191 169Z" fill="#FBFDFF"/>
<path d="M31 -26L43.4233 -12.3644L61 -17.9615L64.9411 0.0588722L82.9615 4L77.3644 21.5767L91 34L77.3644 46.4233L82.9615 64L64.9411 67.9411L61 85.9615L43.4233 80.3644L31 94L18.5767 80.3644L1 85.9615L-2.94113 67.9411L-20.9615 64L-15.3644 46.4233L-29 34L-15.3644 21.5767L-20.9615 4L-2.94113 0.0588722L1 -17.9615L18.5767 -12.3644L31 -26Z" fill="#FBFDFF"/>
</g>
<defs>
<filter id="filter0_d_1336_857" x="-4" y="0" width="608" height="228" filterUnits="userSpaceOnUse" color-interpolation-filters="sRGB">
<feFlood flood-opacity="0" result="BackgroundImageFix"/>
<feColorMatrix in="SourceAlpha" type="matrix" values="0 0 0 0 0 0 0 0 0 0 0 0 0 0 0 0 0 0 127 0" result="hardAlpha"/>
<feOffset dy="4"/>
<feGaussianBlur stdDeviation="2"/>
<feComposite in2="hardAlpha" operator="out"/>
<feColorMatrix type="matrix" values="0 0 0 0 0 0 0 0 0 0 0 0 0 0 0 0 0 0 0.25 0"/>
<feBlend mode="normal" in2="BackgroundImageFix" result="effect1_dropShadow_1336_857"/>
<feBlend mode="normal" in="SourceGraphic" in2="effect1_dropShadow_1336_857" result="shape"/>
</filter>
<clipPath id="clip0_1336_857">
<rect width="600" height="220" fill="white"/>
</clipPath>
</defs>
</svg>
