<svg width="32" height="32" viewBox="0 0 32 32" fill="none" xmlns="http://www.w3.org/2000/svg">
<path d="M16 32C24.8366 32 32 24.8366 32 16C32 7.16344 24.8366 0 16 0C7.16344 0 0 7.16344 0 16C0 24.8366 7.16344 32 16 32Z" fill="#299197"/>
<path fill-rule="evenodd" clip-rule="evenodd" d="M16.1544 18.5954C15.7114 19.0269 15.2722 19.4512 14.8372 19.8789C14.6851 20.0287 14.514 20.1115 14.2957 20.1C14.1467 20.0921 14.0634 20.0266 14.0176 19.8853C13.6843 18.8507 13.3461 17.8188 13.0145 16.7832C12.9823 16.6828 12.9348 16.634 12.833 16.6025C12.0477 16.3627 11.264 16.1173 10.4815 15.8686C10.3611 15.8303 10.2397 15.7802 10.1357 15.7094C9.97488 15.6005 9.95136 15.4228 10.0955 15.295C10.2287 15.1771 10.3877 15.0744 10.5529 15.0089C11.5127 14.6286 12.4777 14.2605 13.4412 13.8891C15.8862 12.945 18.3313 12.0017 20.7766 11.0577C21.2416 10.878 21.599 11.1311 21.5506 11.6339C21.5197 11.9555 21.4364 12.2719 21.3692 12.5894C20.8382 15.0964 20.3068 17.6035 19.773 20.1099C19.6462 20.705 19.2283 20.8605 18.7385 20.4993C17.9182 19.8947 17.0987 19.2881 16.2789 18.6825C16.2398 18.6542 16.1991 18.6268 16.1544 18.5954ZM14.3131 19.3566C14.3223 19.3541 14.3315 19.3515 14.3407 19.3492C14.3458 19.3257 14.3533 19.3027 14.3553 19.2794C14.408 18.7112 14.4637 18.1432 14.5094 17.5739C14.5197 17.4471 14.5631 17.3571 14.6585 17.2717C15.4146 16.5956 16.1662 15.9151 16.9192 15.2362C17.7528 14.4844 18.5867 13.7334 19.4172 12.9785C19.4686 12.932 19.49 12.8527 19.5253 12.7883C19.4471 12.7799 19.3633 12.7484 19.2922 12.7668C19.1953 12.7919 19.1035 12.8481 19.0171 12.9026C17.1774 14.0613 15.3392 15.2221 13.4982 16.3786C13.3942 16.444 13.3747 16.4995 13.4143 16.6138C13.5501 17.0036 13.6735 17.397 13.8016 17.7896C13.9721 18.3121 14.1426 18.8344 14.3131 19.3566Z" fill="white"/>
</svg>
