<svg width="32" height="32" viewBox="0 0 32 32" fill="none" xmlns="http://www.w3.org/2000/svg">
<path d="M16 32C24.8366 32 32 24.8366 32 16C32 7.16344 24.8366 0 16 0C7.16344 0 0 7.16344 0 16C0 24.8366 7.16344 32 16 32Z" fill="#299197"/>
<path fill-rule="evenodd" clip-rule="evenodd" d="M11 19.497C12.017 20.1308 13.2243 20.5 14.5224 20.5C18.7492 20.5 21.0603 17.098 21.0603 14.1481C21.0603 14.0514 21.0581 13.9558 21.0536 13.8602C21.5027 13.5452 21.8925 13.1523 22.1999 12.7046C21.7883 12.8826 21.3454 13.0019 20.8806 13.055C21.3549 12.7803 21.7183 12.3416 21.8908 11.821C21.4467 12.0763 20.9545 12.262 20.4315 12.362C20.0126 11.9287 19.4151 11.658 18.7543 11.658C17.4853 11.658 16.456 12.6566 16.456 13.8889C16.456 14.0647 16.4768 14.2343 16.516 14.3979C14.6064 14.305 12.9124 13.4164 11.7801 12.0658C11.5824 12.3963 11.4687 12.7787 11.4687 13.1882C11.4687 13.9624 11.8742 14.646 12.4907 15.0461C12.1138 15.0356 11.7599 14.9345 11.4497 14.767C11.4497 14.7764 11.4497 14.7858 11.4497 14.7952C11.4497 15.8762 12.2426 16.7792 13.2926 16.9842C13.1005 17.0356 12.8973 17.0621 12.6878 17.0621C12.5394 17.0621 12.3955 17.0488 12.2555 17.0223C12.5473 17.9098 13.3962 18.5553 14.4014 18.5724C13.6152 19.1715 12.6257 19.5274 11.5482 19.5274C11.3629 19.5274 11.1803 19.5185 11 19.497Z" fill="white"/>
</svg>
