<svg width="94" height="14" viewBox="0 0 94 14" fill="none" xmlns="http://www.w3.org/2000/svg">
<path fill-rule="evenodd" clip-rule="evenodd" d="M13.9738 7.00006C13.9738 10.4547 15.7484 13.2553 21.7819 13.2553C27.7942 13.2553 29.3414 11.4329 29.715 8.91492H24.3528C24.3528 9.5532 23.5035 10.1915 21.8561 10.1915C20.5224 10.1915 19.7464 9.69008 19.3354 8.91492C19.1932 8.64669 19.1792 8.40429 19.1792 8.02132H29.8023C29.8207 7.68899 29.8267 7.34784 29.8267 7.00006C29.8267 2.99674 27.4606 0.744873 21.7819 0.744873C16.1033 0.744873 13.9738 2.99674 13.9738 7.00006ZM24.3026 4.95757C24.4448 5.2258 24.4588 5.59585 24.4588 5.59585H19.1792C19.1792 5.59585 19.1932 5.2258 19.3354 4.95757C19.7426 4.18962 20.508 3.69035 21.819 3.68113C23.13 3.69035 23.8954 4.18962 24.3026 4.95757Z" fill="#222222" fill-opacity="0.4"/>
<path d="M79.7711 4.65437C79.7711 7.89366 82.0189 8.40429 87.3426 8.40429C88.4074 8.40429 88.644 8.95481 88.644 9.34576C88.644 9.73671 88.2891 10.258 86.9877 10.258C85.4497 10.258 85.2131 9.64983 85.2131 9.34576H79.7711C79.7711 11.8478 81.1908 13.2553 86.8694 13.2553C92.548 13.2553 93.9677 11.8478 93.9677 9.34576C93.9677 7.78196 93.2579 7.00006 93.0213 6.73943C91.9398 5.54812 90.1662 5.55477 87.5198 5.56469C87.2713 5.56562 87.0151 5.56658 86.7511 5.56658C85.4497 5.56658 85.0948 5.04532 85.0948 4.65437C85.0948 4.26342 85.4497 3.74215 86.7511 3.74215C88.1707 3.74215 88.5257 4.3503 88.5257 4.65437H93.7311C93.7311 2.15229 92.548 0.744873 86.8694 0.744873C81.1908 0.744873 79.7711 2.15229 79.7711 4.65437Z" fill="#222222" fill-opacity="0.4"/>
<path fill-rule="evenodd" clip-rule="evenodd" d="M70.5433 13.2557C64.5097 13.2557 62.7352 10.4552 62.7352 7.00051C62.7352 2.99719 64.8646 0.745324 70.5433 0.745324C76.2219 0.745324 78.588 2.99719 78.588 7.00051C78.588 7.34829 78.582 7.68944 78.5636 8.02177H67.9406C67.9406 8.40474 67.9546 8.64714 68.0968 8.91537C68.5078 9.69053 69.2838 10.1919 70.6174 10.1919C72.2649 10.1919 73.1141 9.55365 73.1141 8.91537H78.4764C78.1028 11.4334 76.5555 13.2557 70.5433 13.2557ZM73.2202 5.5963C73.2202 5.5963 73.2062 5.22625 73.0639 4.95802C72.6567 4.19007 71.8913 3.6908 70.5804 3.68158C69.2694 3.6908 68.504 4.19007 68.0968 4.95802C67.9546 5.22625 67.9406 5.5963 67.9406 5.5963H73.2202Z" fill="#222222" fill-opacity="0.4"/>
<path d="M46.6358 1.00044H52.1545L54.5762 9.42564H55.0215L57.4432 1.00044H62.9619L58.1331 13.0002H51.4647L46.6358 1.00044Z" fill="#222222" fill-opacity="0.4"/>
<path fill-rule="evenodd" clip-rule="evenodd" d="M38.8179 13.2557C32.7843 13.2557 31.0097 10.4552 31.0097 7.00051C31.0097 2.99719 33.1392 0.745324 38.8179 0.745324C44.4965 0.745324 46.8626 2.99719 46.8626 7.00051C46.8626 7.34829 46.8566 7.68944 46.8382 8.02177H36.2151C36.2151 8.40474 36.2291 8.64714 36.3714 8.91537C36.7824 9.69053 37.5584 10.1919 38.892 10.1919C40.5395 10.1919 41.3887 9.55365 41.3887 8.91537H46.7509C46.3774 11.4334 44.8301 13.2557 38.8179 13.2557ZM41.4947 5.5963C41.4947 5.5963 41.4807 5.22625 41.3385 4.95802C40.9313 4.19007 40.1659 3.6908 38.8549 3.68158C37.544 3.6908 36.7786 4.19007 36.3714 4.95802C36.2292 5.22625 36.2152 5.5963 36.2152 5.5963H41.4947Z" fill="#222222" fill-opacity="0.4"/>
<path d="M13.0126 0.999539H-0.000976562V4.85288H6.45959L-0.000976562 9.14608V12.9994H13.0126V9.14606H6.55224L13.0126 4.85288V0.999539Z" fill="#222222" fill-opacity="0.4"/>
</svg>
